<?xml version="1.0" encoding="utf-8"?>
<!-- Generator: Adobe Illustrator 16.0.0, SVG Export Plug-In . SVG Version: 6.00 Build 0)  -->
<!DOCTYPE svg PUBLIC "-//W3C//DTD SVG 1.1//EN" "http://www.w3.org/Graphics/SVG/1.1/DTD/svg11.dtd">
<svg version="1.1" id="Capa_1" xmlns="http://www.w3.org/2000/svg" xmlns:xlink="http://www.w3.org/1999/xlink" x="0px" y="0px"
	 width="19.516px" height="19.52px" viewBox="0 0 19.516 19.52" enable-background="new 0 0 19.516 19.52" xml:space="preserve">
<path fill="#FFFFFF" d="M17.609,13.151c-1.09-0.877-1.953-1.283-2.715-1.283c-0.936,0-1.559,0.631-2.16,1.24l-0.192,0.191
	c-0.011,0.012-0.039,0.041-0.138,0.041c-0.231,0-0.625-0.168-1.075-0.463c-0.679-0.441-1.526-1.17-2.522-2.166
	c-2.367-2.368-2.622-3.306-2.622-3.6c0-0.102,0.03-0.134,0.032-0.137l0.19-0.188c1.065-1.05,2.167-2.135-0.037-4.878
	C5.622,0.978,4.88,0.511,4.098,0.478L4.023,0.477c-1.1,0-1.892,0.832-2.592,1.568C1.32,2.163,1.213,2.276,1.106,2.382
	C0.287,3.201,0.267,4.934,1.053,7.017c0.837,2.222,2.488,4.635,4.649,6.795c2.159,2.16,4.572,3.812,6.793,4.648
	c1.006,0.381,1.954,0.582,2.745,0.582c0.824,0,1.479-0.219,1.892-0.633c0.104-0.105,0.219-0.213,0.338-0.326
	c0.756-0.717,1.613-1.531,1.566-2.666C19.004,14.639,18.537,13.895,17.609,13.151z M4.015,1.588v-0.25l0.038,0.25
	c0.436,0.019,0.925,0.36,1.454,1.016C7.086,4.566,6.63,5.014,5.63,6L5.436,6.191c-0.938,0.939-0.14,2.575,2.588,5.305
	c1.051,1.051,1.961,1.828,2.702,2.311c1.166,0.758,2.039,0.842,2.603,0.277l0.196-0.197c0.517-0.523,0.89-0.902,1.402-0.902
	c0.484,0,1.117,0.326,1.988,1.027c0.657,0.527,1,1.018,1.018,1.455c0.025,0.629-0.637,1.26-1.258,1.85
	c-0.113,0.107-0.223,0.211-0.324,0.312c-0.455,0.455-1.918,0.383-3.461-0.201c-2.076-0.781-4.349-2.344-6.402-4.395
	C4.437,10.983,2.876,8.71,2.092,6.631C1.399,4.793,1.491,3.568,1.893,3.167c0.106-0.107,0.215-0.221,0.345-0.355
	C2.778,2.237,3.394,1.588,4.015,1.588z"/>
</svg>
