<?xml version="1.0" encoding="utf-8"?>
<!-- Generator: Adobe Illustrator 16.0.0, SVG Export Plug-In . SVG Version: 6.00 Build 0)  -->
<!DOCTYPE svg PUBLIC "-//W3C//DTD SVG 1.1//EN" "http://www.w3.org/Graphics/SVG/1.1/DTD/svg11.dtd">
<svg version="1.1" id="Capa_1" xmlns="http://www.w3.org/2000/svg" xmlns:xlink="http://www.w3.org/1999/xlink" x="0px" y="0px"
	 width="512px" height="512px" viewBox="0 0 512 512" enable-background="new 0 0 512 512" xml:space="preserve">
<path fill="#FFFFFF" d="M358.906,247.207L165.218,113.629c-1.77-1.217-3.87-1.86-6.073-1.86c-1.731,0-3.44,0.414-4.954,1.202
	c-3.523,1.853-5.711,5.475-5.711,9.452v267.149c0,3.981,2.19,7.605,5.726,9.465c1.525,0.794,3.238,1.214,4.953,1.214
	c2.161,0,4.255-0.651,6.065-1.89l193.682-133.574c2.89-1.994,4.615-5.279,4.615-8.789
	C363.521,252.494,361.797,249.209,358.906,247.207z M334.034,256.003L169.838,369.237V142.763L334.034,256.003z"/>
</svg>
