<?xml version="1.0" encoding="utf-8"?>
<!-- Generator: Adobe Illustrator 16.0.0, SVG Export Plug-In . SVG Version: 6.00 Build 0)  -->
<!DOCTYPE svg PUBLIC "-//W3C//DTD SVG 1.1//EN" "http://www.w3.org/Graphics/SVG/1.1/DTD/svg11.dtd">
<svg version="1.1" id="Capa_1" xmlns="http://www.w3.org/2000/svg" xmlns:xlink="http://www.w3.org/1999/xlink" x="0px" y="0px"
	 width="512px" height="512px" viewBox="0 0 512 512" enable-background="new 0 0 512 512" xml:space="preserve">
<g>
	<path fill="#FFFFFF" d="M414.921,237.667L233.585,131.001c-3.538-2.168-7.133-3.252-10.787-3.252c-3.462,0-6.978,0.974-10.545,2.92
		c-7.11,4.222-10.667,10.445-10.667,18.665v213.33c0,8.227,3.557,14.443,10.667,18.664c3.555,1.775,7.11,2.668,10.665,2.668
		c3.776,0,7.332-0.998,10.667-2.996l181.336-106.67c7.107-4.004,10.664-10.109,10.664-18.33
		C425.585,247.781,422.029,241.664,414.921,237.667z"/>
	
		<line fill="none" stroke="#FFFFFF" stroke-width="35" stroke-linecap="round" stroke-linejoin="round" stroke-miterlimit="10" x1="149.415" y1="146.749" x2="149.415" y2="367.996"/>
	
		<line fill="none" stroke="#FFFFFF" stroke-width="35" stroke-linecap="round" stroke-linejoin="round" stroke-miterlimit="10" x1="86.415" y1="146.749" x2="86.415" y2="367.996"/>
</g>
</svg>
