<?xml version="1.0" encoding="utf-8"?>
<!-- Generator: Adobe Illustrator 16.0.0, SVG Export Plug-In . SVG Version: 6.00 Build 0)  -->
<!DOCTYPE svg PUBLIC "-//W3C//DTD SVG 1.1//EN" "http://www.w3.org/Graphics/SVG/1.1/DTD/svg11.dtd">
<svg version="1.1" id="Capa_1" xmlns="http://www.w3.org/2000/svg" xmlns:xlink="http://www.w3.org/1999/xlink" x="0px" y="0px"
	 width="512px" height="512px" viewBox="0 0 512 512" enable-background="new 0 0 512 512" xml:space="preserve">
<g>
	<g>
		<path fill="#FFFFFF" d="M-220.997,264.568c-2.473-11.241-7.955-20.668-16.428-28.284c-8.48-7.617-18.24-12.094-29.292-13.428
			c-35.045-3.809-87.9-5.712-158.572-5.712c-70.669,0-123.431,1.905-158.289,5.712c-11.235,1.334-21.044,5.811-29.429,13.428
			c-8.382,7.62-13.906,17.047-16.574,28.284c-4.951,22.1-7.428,55.432-7.428,100.004c0,45.332,2.477,78.668,7.428,100.003
			c2.48,11.233,7.957,20.668,16.434,28.282c8.476,7.619,18.238,11.999,29.284,13.144c35.052,3.999,87.911,6,158.576,6
			c70.66,0,123.53-2.001,158.568-6c11.051-1.145,20.764-5.524,29.147-13.144c8.383-7.613,13.907-17.049,16.572-28.282
			c4.951-22.099,7.432-55.431,7.432-100.003C-213.569,319.24-216.049,285.903-220.997,264.568z M-516.14,293.432h-30.571V456h-28.57
			V293.432h-30.002v-26.856h89.145L-516.14,293.432L-516.14,293.432z M-439,456h-25.429v-15.432
			C-474.714,452.191-484.431,458-493.574,458c-8.761,0-14.286-3.527-16.568-10.572c-1.522-4.571-2.288-11.527-2.288-20.859V314.856
			h25.429v104c0,6.092,0.096,9.428,0.288,10c0.571,4,2.57,5.999,6.001,5.999c5.142,0,10.573-4,16.285-11.999v-108h25.429L-439,456
			L-439,456z M-341.856,413.712c0,13.904-0.855,23.435-2.562,28.579c-3.247,10.47-10.004,15.709-20.288,15.709
			c-9.144,0-17.999-5.239-26.575-15.709v13.712h-25.425V266.575h25.425v62c8.195-10.28,17.048-15.424,26.575-15.424
			c10.284,0,17.041,5.335,20.288,15.999c1.705,4.952,2.562,14.38,2.562,28.285V413.712z M-245.284,390.287h-51.141v24.857
			c0,13.144,4.377,19.711,13.141,19.711c6.283,0,10.096-3.424,11.428-10.287c0.376-1.903,0.571-7.712,0.571-17.425h26v3.713
			c0,9.336-0.195,14.856-0.572,16.575c-0.567,5.137-2.562,10.28-5.999,15.424C-258.714,452.952-269.008,458-282.719,458
			c-13.137,0-23.425-4.859-30.856-14.569c-5.521-7.048-8.28-18.096-8.28-33.144v-49.432c0-15.048,2.664-26.096,7.992-33.144
			c7.433-9.712,17.623-14.569,30.58-14.569c12.764,0,22.866,4.857,30.284,14.569c5.15,7.048,7.716,18.096,7.716,33.144V390.287
			L-245.284,390.287z"/>
		<path fill="#FFFFFF" d="M-378.431,336.288c-4.384,0-8.664,2.103-12.856,6.288v85.996c4.191,4.189,8.473,6.283,12.856,6.283
			c7.424,0,11.147-6.376,11.147-19.144v-60.28C-367.285,342.668-371,336.288-378.431,336.288z"/>
		<path fill="#FFFFFF" d="M-283.569,336.288c-8.57,0-12.855,6.479-12.855,19.424v13.144h25.711v-13.144
			C-270.714,342.761-275.001,336.288-283.569,336.288z"/>
		<path fill="#FFFFFF" d="M-532.705,114v77.432h28.569V114l34.566-114h-29.142l-19.425,75.144L-538.423,0h-30.284
			c5.334,16.001,11.524,33.81,18.572,53.43C-541.181,79.714-535.375,99.908-532.705,114z"/>
		<path fill="#FFFFFF" d="M-431.284,193.432c13.144,0,23.235-4.857,30.284-14.571c5.336-7.048,8-18.287,8-33.714V95.145
			c0-15.236-2.671-26.382-8-33.431c-7.049-9.714-17.141-14.571-30.284-14.571c-12.766,0-22.767,4.857-30.002,14.571
			c-5.331,7.048-7.998,18.194-7.998,33.431v50.001c0,15.236,2.664,26.477,7.998,33.714
			C-454.048,188.574-444.051,193.432-431.284,193.432z M-443.572,90c0-13.144,4.096-19.715,12.288-19.715S-419,76.857-419,90v59.999
			c0,13.338-4.092,20-12.284,20s-12.288-6.666-12.288-20V90z"/>
		<path fill="#FFFFFF" d="M-352.719,193.432c9.53,0,19.343-5.905,29.435-17.718v15.715h26V48.857h-26v108.856
			c-5.716,8.192-11.141,12.284-16.29,12.284c-3.432,0-5.433-2.095-6.001-6.285c-0.191-0.381-0.287-3.718-0.287-10.001V48.857h-26
			v112.574c0,9.712,0.768,16.852,2.288,21.427C-367.096,189.906-361.479,193.432-352.719,193.432z"/>
	</g>
</g>
<path fill="#63CD69" d="M1262.875,743.722c5.041,0.006,6.252-1.204,6.246-6.245c-0.154-126.625-0.121-253.25-0.121-379.875
	c-127.167,0-254.334,0.02-381.5-0.095c-3.75-0.003-4.598,0.846-4.594,4.595C883.02,489.269,883,616.434,883,743.601
	C1009.625,743.601,1136.25,743.567,1262.875,743.722z M1076.225,457.797c51.629,0.068,93.178,41.797,93.182,93.584
	c0.005,52.252-41.452,93.23-94.307,93.221c-50.797-0.009-92.219-41.941-92.228-93.362
	C982.864,499.598,1024.693,457.729,1076.225,457.797z"/>
<path fill="#FEFEFE" d="M1284.5-3c0-1.167-0.053-2.336,0.012-3.499c0.109-1.975-1.385-0.589-2.012-1.001
	c1.404,1.739,0.982,3.814,0.982,5.774c0.02,124.938,0.02,249.875,0.012,374.813c0,6.366-0.039,6.404-6.408,6.405
	c-124.938,0.008-249.876,0.008-374.814-0.012c-1.959,0-4.032,0.42-5.771-0.982c-0.314,3.963,2.748,1.896,4,1.897
	c126.5,0.109,253,0.083,379.5,0.197c3.75,0.003,4.598-0.846,4.594-4.595C1284.481,249.667,1284.5,123.333,1284.5-3z"/>
<path fill="#FEFEFE" d="M902.272,379.481c124.938,0.02,249.877,0.02,374.814,0.012c6.369-0.001,6.408-0.039,6.408-6.405
	c0.008-124.938,0.008-249.876-0.012-374.813c0-1.96,0.422-4.035-0.982-5.774c0,126.625-0.033,253.25,0.121,379.875
	c0.006,5.041-1.205,6.251-6.246,6.245c-126.625-0.154-253.25-0.121-379.875-0.121C898.24,379.901,900.313,379.481,902.272,379.481z"
	/>
<path fill="#FEFEFE" d="M253.208,506.895c141.976,0.026,253.337-110.05,253.324-250.406C506.522,117.379,394.914,5.29,256.23,5.106
	C117.806,4.925,5.446,117.39,5.469,256.108C5.493,394.234,116.759,506.871,253.208,506.895z M370.948,365.718
	c-5.781,10.461-14.488,10.23-24.02,4.643c-28.145-16.495-58.508-26.214-90.853-30.514c-40.906-5.438-81.212-1.694-121.197,6.926
	c-11.154,2.402-19.884,1.467-23.703-10.438c-2.93-9.129,3.795-16.799,16.854-19.627c29.338-6.356,59.014-9.997,89.071-10.233
	c49.098,0.165,95.827,9.986,139.083,34.021c1.951,1.086,3.93,2.136,5.824,3.315C370.272,348.96,376.629,355.435,370.948,365.718z
	 M372.824,303.629c-29.371-16.949-60.846-27.797-94.084-33.943c-49.939-9.233-99.552-8.497-148.752,4.732
	c-6.616,1.778-13.145,3.35-19.496-0.283c-7.225-4.132-11.186-10.451-10.047-18.9c1.288-9.572,7.66-14.493,16.625-17.09
	c38.191-11.073,77.191-15.125,116.77-12.872c55.181,3.137,107.666,16.274,155.984,44c7.686,4.409,14.375,9.338,13.984,18.497
	C403.754,304.649,388.088,312.438,372.824,303.629z M83.785,172.598c2.049-11.741,10.467-17.069,21.064-19.886
	c37.832-10.049,76.322-14.664,115.5-13.979c69.648,0.666,137.021,11.589,199.49,44.542c2.764,1.458,5.559,2.912,8.135,4.667
	c11.135,7.586,14.369,20.852,7.83,31.612c-6.438,10.593-18.799,14.638-30.336,8.174c-39.27-22.006-81.666-33.417-125.967-39.002
	c-54.651-6.889-108.82-5.433-162.334,8.74C96.684,202.891,80.593,190.895,83.785,172.598z"/>
</svg>
