<?xml version="1.0" encoding="utf-8"?>
<!-- Generator: Adobe Illustrator 16.0.0, SVG Export Plug-In . SVG Version: 6.00 Build 0)  -->
<!DOCTYPE svg PUBLIC "-//W3C//DTD SVG 1.1//EN" "http://www.w3.org/Graphics/SVG/1.1/DTD/svg11.dtd">
<svg version="1.1" id="Capa_1" xmlns="http://www.w3.org/2000/svg" xmlns:xlink="http://www.w3.org/1999/xlink" x="0px" y="0px"
	 width="82.534px" height="83.187px" viewBox="873.782 631.875 82.534 83.187"
	 enable-background="new 873.782 631.875 82.534 83.187" xml:space="preserve">
<g>
	<g>
		<path fill="#A8A8A8" d="M580.353,321.809L396.765,138.22c-19.871-19.871-52.205-19.871-72.076,0L38.181,424.729
			c-9.936,9.937-14.903,22.987-14.903,36.038s4.968,26.102,14.903,36.037l46.062,46.063l-50.579,50.579
			c-2.271,2.271-3.405,5.246-3.405,8.221c0,2.976,1.135,5.951,3.405,8.222c4.541,4.54,11.902,4.541,16.442,0l50.579-50.579
			l21.066,21.067L3.406,698.726C1.135,700.995,0,703.972,0,706.947c0,2.975,1.135,5.951,3.405,8.221c4.54,4.54,11.902,4.54,16.443,0
			L138.197,596.82l83.572,83.572c19.872,19.87,52.204,19.87,72.075,0l286.509-286.51c9.626-9.624,14.927-22.424,14.927-36.036
			C595.28,344.233,589.979,331.435,580.353,321.809z M249.359,670.722c-4.079-1.298-7.919-3.541-11.148-6.771L54.622,480.362
			c-7.244-7.245-9.606-17.531-7.136-26.782h201.872V670.722z M207.332,430.326l34.476-34.476c4.54-4.54,4.542-11.902,0-16.442
			c-4.541-4.541-11.901-4.542-16.442,0l-50.919,50.918h-33.874l105.11-105.111c4.539-4.54,4.541-11.902,0-16.443
			c-4.54-4.54-11.901-4.54-16.443,0L107.688,430.326H65.469l264.817-264.818v237.106c0,15.281-12.432,27.712-27.712,27.712H207.332z
			 M563.911,377.442l-286.51,286.509c-1.478,1.478-3.092,2.734-4.789,3.809V453.58h29.963c28.102,0,50.965-22.863,50.965-50.966
			v-29.962h133.269l-67.279,67.281c-2.27,2.27-3.405,5.246-3.405,8.221c0,2.977,1.135,5.951,3.405,8.222
			c4.54,4.54,11.902,4.54,16.443,0l83.714-83.714c0.002-0.002,0.004-0.006,0.007-0.008h48.05
			C566.656,374.366,565.381,375.974,563.911,377.442z M353.539,349.398V147.526c9.252-2.471,19.538-0.108,26.783,7.137
			L563.91,338.251c3.177,3.175,5.479,6.988,6.805,11.147H353.539z"/>
	</g>
</g>
<g>
	<g>
		<path fill="#A8A8A8" d="M274.143,280.322c-2.162-2.174-5.162-3.407-8.22-3.407c-3.069,0-6.058,1.232-8.221,3.407
			c-2.162,2.163-3.406,5.15-3.406,8.22c0,3.058,1.244,6.057,3.406,8.22c2.163,2.163,5.151,3.407,8.221,3.407
			c3.058,0,6.058-1.244,8.22-3.407s3.406-5.162,3.406-8.22C277.549,285.472,276.305,282.484,274.143,280.322z"/>
	</g>
</g>
<g>
	<g>
		<path fill="#A8A8A8" d="M19.893,623.654c-2.162-2.162-5.162-3.406-8.22-3.406s-6.058,1.244-8.22,3.406
			c-2.163,2.162-3.407,5.162-3.407,8.22s1.244,6.058,3.407,8.221c2.162,2.162,5.162,3.406,8.22,3.406
			c3.069,0,6.058-1.244,8.22-3.406c2.175-2.163,3.407-5.163,3.407-8.221S22.068,625.816,19.893,623.654z"/>
	</g>
</g>
<g>
	<g>
		<path fill="#A8A8A8" d="M147.678,645.916c-4.541-4.541-11.903-4.541-16.443,0l-52.803,52.803c-2.27,2.27-3.405,5.246-3.405,8.222
			c0,2.975,1.135,5.951,3.405,8.222c4.541,4.54,11.903,4.54,16.443,0l52.803-52.803
			C152.217,657.817,152.217,650.456,147.678,645.916z"/>
	</g>
</g>
<g>
	<path fill="#7AD06D" d="M931.413,635.246c-5.173-2.237-10.679-3.371-16.363-3.371c-0.67,0-1.35,0.016-2.021,0.048
		c-10.622,0.506-20.525,5.057-27.887,12.815c-7.358,7.756-11.393,17.889-11.36,28.531c0.02,6.554,1.53,12.815,4.49,18.612
		l0.291,0.569l-4.658,22.61l22.181-5.255l0.59,0.294c5.542,2.761,11.508,4.209,17.73,4.304c0.213,0.003,0.427,0.005,0.638,0.005
		c10.735,0,20.922-4.132,28.682-11.636c7.771-7.513,12.235-17.567,12.57-28.311c0.352-11.283-3.772-21.952-11.612-30.04
		C940.876,640.495,936.411,637.407,931.413,635.246z M947.899,686.748c-1.799,4.344-4.392,8.227-7.704,11.539
		c-6.717,6.717-15.646,10.415-25.146,10.415c-5.561,0-10.886-1.248-15.828-3.71l-2.439-1.215l-15.48,3.667l3.256-15.804
		l-1.202-2.354c-2.565-5.024-3.866-10.456-3.866-16.145c0-9.498,3.699-18.429,10.415-25.146c3.313-3.312,7.195-5.904,11.539-7.704
		c4.344-1.799,8.922-2.711,13.607-2.711c9.498,0,18.429,3.699,25.145,10.415c6.717,6.717,10.416,15.646,10.416,25.145
		C950.611,677.826,949.698,682.404,947.899,686.748z"/>
	<path fill="#7AD06D" d="M927.313,681.141c-0.181-0.053-0.368-0.079-0.556-0.079c-0.539,0-1.063,0.221-1.44,0.604l-2.041,2.08
		c-0.776,0.79-1.854,1.244-2.959,1.244c-0.529,0-1.046-0.101-1.536-0.299c-4.125-1.669-12.627-9.163-14.913-13.146
		c-0.833-1.451-0.706-3.249,0.323-4.582l1.782-2.306c0.453-0.587,0.549-1.372,0.249-2.05l-3.512-7.942
		c-0.327-0.74-1.037-1.201-1.851-1.201c-0.335,0-0.833,0.084-1.304,0.481c-2.137,1.807-4.746,4.585-5.048,7.557
		c-0.666,6.572,3.055,13.691,11.058,21.161c5.061,4.723,12.775,10.353,20.794,10.353c1.261,0,2.487-0.143,3.646-0.423
		c2.903-0.703,5.299-3.667,6.798-6.03c0.346-0.545,0.413-1.203,0.185-1.806c-0.228-0.599-0.712-1.044-1.328-1.221L927.313,681.141z"
		/>
</g>
</svg>
